boniin[BOW] present






Release Title: Transformers 2 - Revenge of the Fallen 2009
Blu-Ray Release Date: 20th October 2009      
Certification: Rated PG-13 for intense sequences of sci-fi action violence, language, some crude and sexual material
GENRE : Action | Adventure | Sci-Fi
iMDB RATiNG :6.2/10
iMDB LiNK : http://www.imdb.com/title/tt1055369
Film Length: 2:29:54
Tagline: Revenge is coming. 
Storyline:Decepticon forces return to Earth on a mission to take Sam Witwicky prisoner, after the young hero learns the truth about the ancient origins of the Transformers. Joining the mission to protect humankind is Optimus Prime, who forms an alliance with international armies for a second epic battle.  
  


Shia LaBeouf ... Sam Witwicky
Megan Fox ... Mikaela Banes
Josh Duhamel ... Captain Lennox
Tyrese Gibson ... USAF Tech Sergeant Epps
Rachael Taylor ... Maggie Madsen
Anthony Anderson ... Glen Whitmann
Jon Voight ... Defense Secretary John Keller
John Turturro ... Agent Simmons
Michael O'Neill ... Tom Banacheck
Kevin Dunn ... Ron Witwicky
Julie White ... Judy Witwicky
Amaury Nolasco ... ACWO Jorge "Fig" Figueroa
Zack Ward ... First Sergeant Donnelly
Luis Echagarruga ... Ranger Team
Pat Mulderrig ... Ranger Team (as Patrick Mulderrig
General
Complete name Transformers Revenge of the Fallen 2009 4800p BluRay Rip.mkv
Format : Matroska
File size : 869 MiB
Duration : 2h 17mn
Overall bit rate : 886 Kbps
Encoded date : UTC 2010-01-14 18:41:25
Writing application : mkvmerge v3.0.0 ('Hang up your Hang-Ups') built on Dec 12 2009 15:20:35
Writing library : libebml v0.7.9 + libmatroska v0.8.1


Video
ID : 1
Format : AVC
Format/Info : Advanced Video Codec
Format profile : High@L3.0
Format settings, CABAC : Yes
Format settings, ReFrames : 3 frames
Muxing mode : Container profile=Unknown@3.0
Codec ID : V_MPEG4/ISO/AVC
Duration : 2h 17mn
Bit rate : 740 Kbps
Nominal bit rate : 708 Kbps
Width : 848 pixels
Height : 352 pixels
Display aspect ratio : 2.35:1
Original display aspect ratio : 2.40:1
Frame rate : 25.000 fps
Original frame rate : 23.976 fps
Resolution : 24 bits
Colorimetry : 4:2:0
Scan type : Progressive
Bits/(Pixel*Frame) : 0.099
Stream size : 726 MiB (84%)
Writing library : x264 core 65

Audio
ID : 2
Format : MPEG Audio
Format version : Version 1
Format profile : Layer 3
Format settings, Mode : Joint stereo / MS Stereo
Codec ID : A_MPEG/L3
Codec ID/Hint : MP3
Duration : 2h 17mn
Bit rate mode : Constant
Bit rate : 128 Kbps
Channel(s) : 2 channels
Sampling rate : 48.0 KHz
Resolution : 16 bits
Stream size : 126 MiB (14%)
Writing library : LAME3.96.1

screen shots
 
http://bayimg.com/JaKjbAacG
 
http://bayimg.com/JAKJhaACG
 
http://bayimg.com/JakjPAAcg